<svg width="58" height="74" viewBox="0 0 58 74" fill="none" xmlns="http://www.w3.org/2000/svg">
<path d="M22.723 10.6274L23.1336 52.5657C23.1336 52.5657 12.8345 47.6266 6.73785 58.51L0.0104717 58.5096L0.0127512 21.3227C0.0127512 21.3227 -0.334693 18.2684 2.97497 17.0595L22.7212 10.6274L22.723 10.6274Z" fill="#F4EFEC"/>
<path d="M6.82432 21.7236H5.40719C4.98599 21.7236 4.64453 22.051 4.64453 22.4549V25.6537C4.64453 26.0576 4.98599 26.385 5.40719 26.385H6.82432C7.24553 26.385 7.58698 26.0576 7.58698 25.6537V22.4549C7.58698 22.051 7.24553 21.7236 6.82432 21.7236Z" fill="#1A1A1A"/>
<path d="M6.82432 32.0039H5.40719C4.98599 32.0039 4.64453 32.3313 4.64453 32.7352V35.934C4.64453 36.3378 4.98599 36.6652 5.40719 36.6652H6.82432C7.24553 36.6652 7.58698 36.3378 7.58698 35.934V32.7352C7.58698 32.3313 7.24553 32.0039 6.82432 32.0039Z" fill="#1A1A1A"/>
<path d="M6.82432 42.1816H5.40719C4.98599 42.1816 4.64453 42.509 4.64453 42.9129V46.1117C4.64453 46.5156 4.98599 46.843 5.40719 46.843H6.82432C7.24553 46.843 7.58698 46.5156 7.58698 46.1117V42.9129C7.58698 42.509 7.24553 42.1816 6.82432 42.1816Z" fill="#1A1A1A"/>
<path d="M18.5175 73.2956C24.3801 73.2956 29.1327 68.7387 29.1327 63.1175C29.1327 57.4963 24.3801 52.9395 18.5175 52.9395C12.6549 52.9395 7.90234 57.4963 7.90234 63.1175C7.90234 68.7387 12.6549 73.2956 18.5175 73.2956Z" fill="#F4EFEC"/>
<path d="M57.1173 46.6031V0L24.981 10.3736V55.0431L28.9982 61.4935L29.133 21.1945L52.1636 13.6235L52.6443 39.8942" fill="#F4EFEC"/>
<path d="M46.3709 58.7622C52.3569 58.7622 57.2095 54.1094 57.2095 48.3699C57.2095 42.6303 52.3569 37.9775 46.3709 37.9775C40.3849 37.9775 35.5322 42.6303 35.5322 48.3699C35.5322 54.1094 40.3849 58.7622 46.3709 58.7622Z" fill="#F4EFEC"/>
</svg>
