<svg width="65" height="72" viewBox="0 0 65 72" fill="none" xmlns="http://www.w3.org/2000/svg">
<path fill-rule="evenodd" clip-rule="evenodd" d="M42.2502 28.718C42.2502 34.6656 37.8849 39.4872 32.5002 39.4872C27.1154 39.4872 22.7502 34.6656 22.7502 28.718C22.7502 22.7703 27.1154 17.9487 32.5002 17.9487C37.8849 17.9487 42.2502 22.7703 42.2502 28.718ZM39.0002 28.718C39.0002 32.6831 36.09 35.8974 32.5002 35.8974C28.9103 35.8974 26.0002 32.6831 26.0002 28.718C26.0002 24.7528 28.9103 21.5385 32.5002 21.5385C36.09 21.5385 39.0002 24.7528 39.0002 28.718Z" fill="#F4EFEC"/>
<path d="M32.5002 44.8718C21.9793 44.8718 13.0152 51.7433 9.60059 61.3703C10.4324 62.2827 11.3087 63.1457 12.2255 63.955C14.7682 55.1164 22.7448 48.4616 32.5002 48.4616C42.2555 48.4616 50.2321 55.1164 52.7748 63.955C53.6916 63.1457 54.5679 62.2827 55.3997 61.3704C51.9851 51.7433 43.021 44.8718 32.5002 44.8718Z" fill="#F4EFEC"/>
</svg>
